HIERARCHY
ROOT Hips
{
 OFFSET 0.000000 0.000000 0.000000
 CHANNELS 6 Xposition Yposition Zposition Yrotation Xrotation Zrotation
 JOINT Chest
 {
  OFFSET 0.000000 9.585900 0.002600
  CHANNELS 3 Yrotation Xrotation Zrotation
  JOINT Chest2
  {
   OFFSET 0.000000 9.601200 -0.005300
   CHANNELS 3 Yrotation Xrotation Zrotation
   JOINT Chest3
   {
    OFFSET 0.000000 9.561800 0.000000
    CHANNELS 3 Yrotation Xrotation Zrotation
    JOINT Chest4
    {
     OFFSET 0.000000 9.552100 0.000000
     CHANNELS 3 Yrotation Xrotation Zrotation
     JOINT Neck
     {
      OFFSET 0.000000 14.453000 0.000000
      CHANNELS 3 Yrotation Xrotation Zrotation
      JOINT Head
      {
       OFFSET 0.000000 8.936500 -0.011300
       CHANNELS 3 Yrotation Xrotation Zrotation
       End Site
       {
        OFFSET 0.000000 17.073600 -0.006000
       }
      }
     }
     JOINT RightCollar
     {
      OFFSET -2.921100 9.558500 0.000000
      CHANNELS 3 Yrotation Xrotation Zrotation
      JOINT RightShoulder
      {
       OFFSET -13.519700 0.000000 0.000000
       CHANNELS 3 Yrotation Xrotation Zrotation
       JOINT RightElbow
       {
        OFFSET 0.000000 -29.696600 0.000000
        CHANNELS 3 Yrotation Xrotation Zrotation
        JOINT RightWrist
        {
         OFFSET 0.000000 -24.004700 0.000000
         CHANNELS 3 Yrotation Xrotation Zrotation
         End Site
         {
          OFFSET 0.000000 -17.728500 0.000000
         }
        }
       }
      }
     }
     JOINT LeftCollar
     {
      OFFSET 2.921100 9.558500 0.000000
      CHANNELS 3 Yrotation Xrotation Zrotation
      JOINT LeftShoulder
      {
       OFFSET 13.519700 0.000000 0.000000
       CHANNELS 3 Yrotation Xrotation Zrotation
       JOINT LeftElbow
       {
        OFFSET 0.000000 -29.696600 0.000000
        CHANNELS 3 Yrotation Xrotation Zrotation
        JOINT LeftWrist
        {
         OFFSET 0.000000 -24.004700 0.000000
         CHANNELS 3 Yrotation Xrotation Zrotation
         End Site
         {
          OFFSET 0.000000 -17.728500 0.000000
         }
        }
       }
      }
     }
    }
   }
  }
 }
 JOINT RightHip
 {
  OFFSET -7.771700 -0.012900 -0.001300
  CHANNELS 3 Yrotation Xrotation Zrotation
  JOINT RightKnee
  {
   OFFSET 0.000000 -40.869800 0.001200
   CHANNELS 3 Yrotation Xrotation Zrotation
   JOINT RightAnkle
   {
    OFFSET 0.000000 -39.717900 0.002100
    CHANNELS 3 Yrotation Xrotation Zrotation
    JOINT RightToe
    {
     OFFSET 0.000000 -4.965400 11.033500
     CHANNELS 3 Yrotation Xrotation Zrotation
     End Site
     {
      OFFSET 0.000000 -1.423100 5.872300
     }
    }
   }
  }
 }
 JOINT LeftHip
 {
  OFFSET 7.771700 -0.012900 -0.001300
  CHANNELS 3 Yrotation Xrotation Zrotation
  JOINT LeftKnee
  {
   OFFSET 0.000000 -40.869800 0.001200
   CHANNELS 3 Yrotation Xrotation Zrotation
   JOINT LeftAnkle
   {
    OFFSET 0.000000 -39.717900 0.002100
    CHANNELS 3 Yrotation Xrotation Zrotation
    JOINT LeftToe
    {
     OFFSET 0.000000 -4.965400 11.033500
     CHANNELS 3 Yrotation Xrotation Zrotation
     End Site
     {
      OFFSET 0.000000 -1.423100 5.872300
     }
    }
   }
  }
 }
}
MOTION
Frames: 9
Frame Time: 0.008333
0.000000 85.388000 0.000000 0.000000 -5.767877 0.000000 0.000000 11.653817 0.000000 0.000000 -5.885947 0.000000 0.000000 -0.000000 0.000000 0.000000 -0.000000 0.000000 0.000000 12.528835 0.000000 0.000000 0.711642 0.000000 0.000000 -0.000000 0.000000 0.000000 0.000000 -90.000000 0.000000 -2.309062 0.000000 0.000000 2.309062 0.000000 0.000000 -0.000000 0.000000 0.000000 -0.000000 90.000000 0.000000 -2.309062 0.000000 0.000000 2.309062 0.000000 0.000000 8.520406 0.000000 0.000000 1.905762 0.000000 -0.000000 -4.658285 0.000000 0.000000 -0.000000 0.000000 0.000000 8.520406 0.000000 0.000000 1.905762 0.000000 -0.000000 -4.658285 0.000000 0.000000 -0.000000 0.000000
-6.663821 58.566607 43.824178 -176.205528 -30.470427 -4.522647 2.917552 22.503127 2.890382 0.311083 3.239760 0.121886 0.514194 5.242834 0.201533 2.026856 19.122691 0.996708 -8.323053 21.071484 0.676919 -15.286088 3.801465 3.567023 2.908673 -0.101100 -0.524606 13.090844 -18.344982 -18.897830 127.235101 -72.571217 -93.182164 22.858155 -19.845482 -51.924261 -4.645710 -2.732547 0.910428 1.110746 -3.684379 -4.498435 -130.403953 -57.989361 103.655893 -11.015115 -9.218611 30.369135 3.634884 -39.506058 -6.513207 -0.301980 69.744441 0.971413 3.439436 5.669901 5.998663 -0.058083 0.143963 -0.019171 -14.407493 -47.660234 1.724084 28.672182 65.761400 27.545203 -7.147898 34.096842 2.483693 0.175815 -19.158149 -6.456364
-6.664303 58.563528 43.826659 -176.200748 -30.464205 -4.527463 2.891621 22.498650 2.902265 0.313361 3.240727 0.120574 0.511356 5.245286 0.204326 2.022018 19.127200 0.997176 -8.339365 21.101451 0.676500 -15.309022 3.854827 3.547225 2.942332 -0.065974 -0.527054 13.136384 -18.387371 -18.946282 127.221274 -72.621186 -93.165498 22.889481 -19.820583 -51.934557 -4.647735 -2.779199 0.905078 1.028421 -3.708307 -4.436563 -130.422486 -58.028215 103.632368 -11.011809 -9.212819 30.361588 3.658940 -39.512261 -6.531115 -0.303372 69.745583 0.992227 3.434139 5.671592 5.998998 -0.058105 0.143282 -0.020534 -14.441790 -47.669592 1.736300 28.668539 65.758211 27.552007 -7.176111 34.114752 2.439155 0.197086 -19.161896 -6.453461
-6.665962 58.560782 43.828049 -176.203029 -30.467975 -4.522549 2.876156 22.499838 2.907809 0.311345 3.241416 0.122416 0.508133 5.246368 0.207247 2.026677 19.132002 0.981545 -8.348204 21.116525 0.680611 -15.339268 3.911766 3.531281 2.954383 -0.052631 -0.529496 13.173008 -18.409233 -18.973277 127.238044 -72.653102 -93.171218 22.902279 -19.797446 -51.942472 -4.659457 -2.816562 0.918599 0.951020 -3.735730 -4.381298 -130.444258 -58.065735 103.615429 -11.008702 -9.207973 30.350496 3.713971 -39.508021 -6.570264 -0.314976 69.749190 1.018246 3.428056 5.672564 5.999042 -0.055505 0.142145 -0.023627 -14.448045 -47.669229 1.734184 28.672946 65.757282 27.556155 -7.185153 34.117455 2.431164 0.204014 -19.156280 -6.458024
-6.667632 58.557547 43.830029 -176.202448 -30.468773 -4.518852 2.858423 22.495231 2.912752 0.309060 3.241059 0.124102 0.513534 5.250990 0.200012 2.011180 19.133507 1.004286 -8.354553 21.127065 0.650462 -15.367571 3.936425 3.505106 2.975960 -0.043929 -0.568396 13.216578 -18.427853 -18.996614 127.194855 -72.679699 -93.138652 22.900024 -19.819752 -51.923123 -4.659260 -2.846590 0.896885 0.891339 -3.768500 -4.326808 -130.483092 -58.100392 103.614839 -11.002964 -9.204011 30.340712 3.739111 -39.509697 -6.591700 -0.302113 69.753423 1.045798 3.422833 5.674337 5.996068 -0.056729 0.140524 -0.020291 -14.457483 -47.671312 1.732291 28.647551 65.760821 27.535881 -7.190161 34.118221 2.415268 0.205142 -19.134474 -6.457586
-6.669988 58.554642 43.831328 -176.202895 -30.475578 -4.510600 2.840816 22.492894 2.912398 0.306771 3.239770 0.125513 0.519003 5.259237 0.194421 1.993395 19.129096 1.023772 -8.368689 21.140553 0.628516 -15.386154 3.934760 3.458966 2.999410 -0.013822 -0.598171 13.262563 -18.465741 -19.032271 127.140859 -72.708664 -93.091273 22.901923 -19.846106 -51.898716 -4.652929 -2.878846 0.888957 0.842138 -3.789895 -4.289557 -130.537002 -58.132795 103.630390 -10.998191 -9.201682 30.332772 3.763830 -39.505786 -6.615420 -0.279105 69.758862 1.078652 3.416818 5.674340 5.996871 -0.058572 0.139455 -0.019749 -14.484562 -47.664999 1.737007 28.677173 65.753304 27.554079 -7.208537 34.110126 2.393303 0.214124 -19.116505 -6.457071
-6.671395 58.552063 43.832347 -176.207782 -30.485467 -4.505630 2.831592 22.489498 2.916343 0.304719 3.237766 0.126750 0.510929 5.261548 0.200004 1.980990 19.126845 1.031025 -8.402988 21.133931 0.607344 -15.366651 3.946368 3.406230 3.015503 0.039667 -0.599699 13.322376 -18.518442 -19.098079 127.146982 -72.734221 -93.078388 22.915428 -19.914644 -51.848426 -4.637757 -2.878359 0.863974 0.798696 -3.831547 -4.240068 -130.597717 -58.164965 103.654734 -10.996550 -9.205088 30.327189 3.778113 -39.499332 -6.623769 -0.258055 69.762266 1.100496 3.417157 5.674941 5.998522 -0.058686 0.138805 -0.019249 -14.484789 -47.656407 1.733383 28.680427 65.752633 27.558443 -7.217038 34.101706 2.382626 0.221416 -19.105267 -6.459030
-6.672504 58.549937 43.832909 -176.212153 -30.499480 -4.502569 2.827191 22.492388 2.919504 0.303284 3.236093 0.127718 0.505926 5.253848 0.206478 1.970210 19.121760 1.035741 -8.419485 21.147513 0.580933 -15.364643 3.953753 3.375819 3.026515 0.084048 -0.603129 13.353963 -18.543765 -19.135166 127.356588 -72.716258 -93.204464 22.910949 -19.881528 -51.880899 -4.633724 -2.862280 0.844877 0.770804 -3.871725 -4.192334 -130.663532 -58.197877 103.683915 -10.990623 -9.172033 30.350527 3.789495 -39.489028 -6.627092 -0.250489 69.765695 1.105892 3.422523 5.678455 6.006897 -0.061414 0.135088 -0.022583 -14.479121 -47.644212 1.727470 28.691000 65.752118 27.571237 -7.227500 34.092948 2.375453 0.222434 -19.089364 -6.458989
-6.674067 58.547204 43.834866 -176.208773 -30.504362 -4.499847 2.819773 22.494034 2.915757 0.302812 3.235549 0.128077 0.490838 5.227494 0.222346 1.961414 19.127304 1.036278 -8.433563 21.162662 0.552141 -15.390832 3.976099 3.338078 3.036567 0.126827 -0.605813 13.385390 -18.567671 -19.171989 127.384758 -72.724952 -93.217874 22.913387 -19.924730 -51.895498 -4.630365 -2.842376 0.824122 0.754153 -3.909528 -4.147984 -130.736142 -58.234007 103.720226 -10.991010 -9.147134 30.368478 3.807058 -39.487434 -6.642052 -0.260130 69.770394 1.103383 3.423635 5.684632 6.011776 -0.060901 0.130391 -0.023096 -14.477448 -47.640649 1.716963 28.712274 65.741605 27.597102 -7.247739 34.093858 2.358929 0.226009 -19.077955 -6.454140
